<svg width="29" height="29" viewBox="0 0 29 29" fill="none" xmlns="http://www.w3.org/2000/svg">
<ellipse cx="14.3243" cy="14.375" rx="14.3238" ry="14.375" fill="#98C546"/>
<ellipse cx="14.3243" cy="14.375" rx="14.3238" ry="14.375" fill="url(#paint0_linear)"/>
<path d="M22.3615 7.00575C21.8514 6.55443 19.7866 5.1094 15.1838 5.08961C15.1838 5.08961 9.75845 4.77289 7.11362 7.10868C5.64108 8.52599 5.1228 10.5965 5.06933 13.1699C5.01586 15.7392 4.94593 20.5573 9.77079 21.8638H9.77491L9.77079 23.8551C9.77079 23.8551 9.742 24.6628 10.2932 24.8251C10.9595 25.023 11.3544 24.4094 11.992 23.7482C12.3416 23.384 12.8228 22.8535 13.1889 22.4457C16.4878 22.711 19.0256 22.1013 19.3136 22.0102C19.9799 21.8004 23.7518 21.3372 24.3647 16.5192C24.9981 11.5625 24.0562 8.42306 22.3615 7.00575ZM22.9209 16.1708C22.4026 20.1931 19.3465 20.4464 18.783 20.6206C18.5444 20.6959 16.315 21.2303 13.5097 21.0522C13.5097 21.0522 11.4202 23.479 10.7703 24.1085C10.6675 24.2075 10.5482 24.2471 10.47 24.2273C10.359 24.1996 10.3261 24.0729 10.3302 23.8868C10.3302 23.6176 10.3466 20.5731 10.3466 20.5731C10.3425 20.5731 10.3425 20.5731 10.3466 20.5731C6.26218 19.4844 6.50075 15.3829 6.54599 13.2372C6.59124 11.0914 7.01079 9.32966 8.25711 8.14593C10.4906 6.19812 15.1016 6.48713 15.1016 6.48713C18.9927 6.50296 20.856 7.63127 21.2879 8.00737C22.7235 9.19506 23.4556 12.0257 22.9209 16.1708Z" fill="white"/>
<path d="M16.2235 13.7325C16.1413 13.7325 16.0715 13.6394 16.0666 13.5177C16.0392 12.7479 15.7876 12.3719 15.2745 12.3325C15.1873 12.3254 15.12 12.218 15.125 12.0926C15.13 11.9673 15.2047 11.8707 15.2919 11.8778C15.9694 11.9315 16.348 12.4901 16.3829 13.4926C16.3879 13.618 16.3206 13.7254 16.2335 13.7289C16.2285 13.7325 16.226 13.7325 16.2235 13.7325Z" fill="white"/>
<path d="M17.423 13.7324H17.4196C17.3006 13.7292 17.2055 13.6363 17.2089 13.5242C17.2259 12.8323 17.0151 12.2718 16.5664 11.8105C16.1211 11.3493 15.5058 11.0994 14.6933 11.045C14.5743 11.0354 14.486 10.9393 14.4962 10.8272C14.5064 10.7151 14.6083 10.6318 14.7273 10.6414C15.6451 10.7054 16.3692 11.0065 16.8859 11.5383C17.406 12.0732 17.6576 12.7427 17.6406 13.5338C17.6372 13.646 17.5386 13.7324 17.423 13.7324Z" fill="white"/>
<path d="M18.6969 14.3499C18.5842 14.3499 18.494 14.2406 18.494 14.1039C18.4844 12.5925 18.127 11.4404 17.3994 10.5773C16.6814 9.72588 15.7703 9.29238 14.6982 9.28066C14.5855 9.28066 14.4954 9.1674 14.4954 9.03071C14.4954 8.89402 14.5887 8.78467 14.6982 8.78467C15.8798 8.79638 16.8843 9.27675 17.6795 10.2219C18.4779 11.167 18.8868 12.4714 18.8997 14.0961C18.9029 14.2367 18.8128 14.3499 18.6969 14.3499C18.7001 14.3499 18.7001 14.3499 18.6969 14.3499Z" fill="white"/>
<path d="M15.1381 16.1353C15.1381 16.1353 15.472 16.1648 15.6521 15.9473L16.0009 15.516C16.1698 15.3021 16.5787 15.1657 16.9763 15.3832C17.1977 15.5049 17.5991 15.7482 17.8467 15.9289C18.113 16.1206 18.6532 16.563 18.657 16.5667C18.9158 16.7805 18.9758 17.0939 18.7995 17.4294C18.7995 17.4294 18.7995 17.4331 18.7995 17.4368C18.6195 17.7502 18.3756 18.0451 18.0717 18.3179C18.068 18.3179 18.068 18.3216 18.0642 18.3216C17.8129 18.5281 17.5653 18.6461 17.3252 18.6719C17.2952 18.6792 17.2614 18.6792 17.2164 18.6792C17.1114 18.6792 17.0063 18.6645 16.9013 18.6313L16.8938 18.6203C16.5186 18.517 15.8959 18.2589 14.8605 17.6949C14.1852 17.3299 13.6263 16.9575 13.1498 16.5851C12.8985 16.3897 12.6434 16.1722 12.3808 15.9141C12.3733 15.9068 12.362 15.8957 12.3545 15.8883C12.347 15.881 12.3358 15.8699 12.3283 15.8625C12.3208 15.8551 12.3095 15.8441 12.302 15.8367C12.2945 15.8293 12.2833 15.8183 12.2757 15.8109C12.0169 15.5528 11.7918 15.3021 11.593 15.0551C11.2141 14.5906 10.8352 14.0375 10.4638 13.3739C9.88982 12.3527 9.62722 11.7407 9.52218 11.3757L9.51093 11.3683C9.47716 11.2651 9.46216 11.1618 9.46216 11.0586C9.46216 11.0144 9.46216 10.9812 9.46966 10.9517C9.49967 10.712 9.61972 10.4724 9.82605 10.2254C9.82605 10.2217 9.8298 10.2217 9.8298 10.218C10.1074 9.91569 10.4075 9.67973 10.7264 9.50277C10.7264 9.50277 10.7302 9.50277 10.7339 9.50277C11.0715 9.32949 11.3904 9.38848 11.6117 9.64287C11.6117 9.64287 12.0657 10.1775 12.2607 10.4392C12.4446 10.6862 12.6922 11.077 12.816 11.2946C13.0373 11.6854 12.8985 12.0872 12.6809 12.2531L12.242 12.596C12.0207 12.773 12.0507 13.1011 12.0507 13.1011C12.0507 13.1011 12.6997 15.527 15.1381 16.1353Z" fill="white"/>
<defs>
<linearGradient id="paint0_linear" x1="14.3243" y1="28.75" x2="14.3243" y2="-6.90874e-07" gradientUnits="userSpaceOnUse">
<stop offset="0.0642275" stop-color="#12AE42"/>
<stop offset="0.53722" stop-color="#73C049"/>
<stop offset="1" stop-color="#98C74C"/>
</linearGradient>
</defs>
</svg>
