<svg width="38" height="38" viewBox="0 0 38 38" fill="none" xmlns="http://www.w3.org/2000/svg">
<path d="M18.7651 37.4285C29.1007 37.4285 37.4794 29.0498 37.4794 18.7142C37.4794 8.37861 29.1007 -6.10352e-05 18.7651 -6.10352e-05C8.42945 -6.10352e-05 0.0507812 8.37861 0.0507812 18.7142C0.0507812 29.0498 8.42945 37.4285 18.7651 37.4285Z" fill="#98C546"/>
<path d="M18.7651 37.4285C29.1007 37.4285 37.4794 29.0498 37.4794 18.7142C37.4794 8.37861 29.1007 -6.10352e-05 18.7651 -6.10352e-05C8.42945 -6.10352e-05 0.0507812 8.37861 0.0507812 18.7142C0.0507812 29.0498 8.42945 37.4285 18.7651 37.4285Z" fill="url(#paint0_linear)"/>
<path fill-rule="evenodd" clip-rule="evenodd" d="M19.3819 29.1259H19.3773C17.5149 29.1253 15.6848 28.658 14.0594 27.7714L8.16028 29.3189L9.739 23.5524C8.76517 21.8648 8.25274 19.9504 8.25358 17.9891C8.25602 11.8535 13.2481 6.86174 19.3818 6.86174C22.3587 6.86302 25.1527 8.02192 27.2537 10.1254C29.3547 12.2287 30.5111 15.0245 30.5099 17.9979C30.5075 24.1321 25.5174 29.1234 19.3819 29.1259ZM14.333 25.7569L14.6708 25.9574C16.0909 26.8001 17.7187 27.246 19.3784 27.2466H19.3821C24.48 27.2466 28.6292 23.0973 28.6313 17.9973C28.6322 15.5259 27.6711 13.2021 25.9248 11.4538C24.1785 9.70552 21.8563 8.74223 19.3858 8.74138C14.2839 8.74138 10.1347 12.8902 10.1327 17.9898C10.132 19.7375 10.621 21.4396 11.5468 22.9121L11.7667 23.2621L10.8324 26.6752L14.333 25.7569ZM24.6074 20.3939C24.8014 20.4876 24.9323 20.5509 24.9883 20.6442C25.0577 20.7602 25.0577 21.3169 24.8262 21.9665C24.5944 22.616 23.4835 23.2087 22.9493 23.2885C22.4702 23.3602 21.864 23.39 21.198 23.1784C20.7941 23.0502 20.2762 22.8792 19.6128 22.5926C17.0061 21.4671 15.2445 18.9406 14.9116 18.4631C14.8883 18.4297 14.872 18.4063 14.8629 18.3941L14.8606 18.3912C14.7135 18.1948 13.7275 16.8793 13.7275 15.5178C13.7275 14.237 14.3567 13.5657 14.6462 13.2567C14.6661 13.2355 14.6843 13.216 14.7007 13.1982C14.9555 12.9198 15.2568 12.8502 15.4421 12.8502C15.6275 12.8502 15.8131 12.8519 15.9751 12.8601C15.9951 12.8611 16.0158 12.8609 16.0373 12.8608C16.1994 12.8599 16.4014 12.8587 16.6007 13.3374C16.6773 13.5216 16.7895 13.7947 16.9078 14.0827C17.1471 14.6652 17.4114 15.3088 17.458 15.4019C17.5275 15.5411 17.5738 15.7034 17.4811 15.8891C17.4672 15.9169 17.4544 15.9432 17.4421 15.9683C17.3725 16.1104 17.3212 16.215 17.2031 16.3529C17.1566 16.4072 17.1086 16.4656 17.0606 16.5241C16.9649 16.6406 16.8693 16.7571 16.786 16.8401C16.6468 16.9787 16.5019 17.1291 16.6641 17.4075C16.8263 17.6859 17.3843 18.5964 18.2109 19.3337C19.0995 20.1263 19.8718 20.4613 20.2632 20.631C20.3397 20.6642 20.4016 20.6911 20.447 20.7138C20.7249 20.853 20.8872 20.8297 21.0494 20.6442C21.2116 20.4586 21.7444 19.8323 21.9298 19.554C22.1151 19.2757 22.3005 19.322 22.5554 19.4148C22.8103 19.5077 24.1773 20.1803 24.4554 20.3194C24.5097 20.3466 24.5604 20.3711 24.6074 20.3939Z" fill="#FDFDFD"/>
<defs>
<linearGradient id="paint0_linear" x1="18.7651" y1="37.4285" x2="18.7651" y2="-6.19346e-05" gradientUnits="userSpaceOnUse">
<stop offset="0.0642275" stop-color="#12AE42"/>
<stop offset="0.53722" stop-color="#73C049"/>
<stop offset="1" stop-color="#98C74C"/>
</linearGradient>
</defs>
</svg>
