<svg width="29" height="29" fill="none" xmlns="http://www.w3.org/2000/svg"><ellipse cx="14.324" cy="14.375" rx="14.324" ry="14.375" fill="#98C546"/><ellipse cx="14.324" cy="14.375" rx="14.324" ry="14.375" fill="url(#paint0_linear)"/><path d="M22.361 7.006c-.51-.452-2.574-1.897-7.177-1.916 0 0-5.426-.317-8.07 2.019-1.473 1.417-1.991 3.488-2.045 6.06-.053 2.57-.123 7.388 4.702 8.695h.004l-.004 1.991s-.029.808.522.97c.667.198 1.061-.416 1.699-1.077.35-.364.83-.895 1.197-1.302 3.299.265 5.837-.345 6.125-.436.666-.21 4.438-.673 5.05-5.49.634-4.957-.308-8.097-2.003-9.514zm.56 9.165c-.518 4.022-3.575 4.275-4.138 4.45-.239.075-2.468.61-5.273.431 0 0-2.09 2.427-2.74 3.056-.102.1-.222.14-.3.12-.111-.028-.144-.155-.14-.341 0-.27.017-3.314.017-3.314-.005 0-.005 0 0 0-4.085-1.089-3.846-5.19-3.801-7.336.045-2.146.465-3.907 1.711-5.091 2.234-1.948 6.845-1.659 6.845-1.659 3.89.016 5.754 1.144 6.186 1.52 1.436 1.188 2.168 4.019 1.633 8.164z" fill="#fff"/><path d="M16.224 13.732c-.083 0-.152-.093-.157-.214-.028-.77-.28-1.146-.793-1.186-.087-.007-.154-.114-.149-.24.005-.125.08-.221.167-.214.677.053 1.056.612 1.09 1.615.006.125-.061.232-.149.236-.005.004-.007.004-.01.004z" fill="#fff"/><path d="M17.423 13.732h-.003c-.12-.003-.215-.096-.211-.208.017-.692-.194-1.252-.643-1.713-.445-.462-1.06-.712-1.873-.766-.119-.01-.207-.106-.197-.218a.21.21 0 01.231-.186c.918.064 1.642.366 2.159.897.52.535.772 1.205.755 1.996-.004.112-.102.198-.218.198z" fill="#fff"/><path d="M18.697 14.35c-.113 0-.203-.11-.203-.246-.01-1.511-.367-2.664-1.095-3.527-.718-.851-1.629-1.285-2.7-1.296-.114 0-.204-.114-.204-.25 0-.137.094-.246.203-.246 1.182.011 2.186.492 2.982 1.437.798.945 1.207 2.25 1.22 3.874.003.14-.087.254-.203.254.003 0 .003 0 0 0zm-3.559 1.785s.334.03.514-.188l.349-.431c.169-.214.578-.35.975-.133.222.122.623.365.87.546.267.192.807.634.811.638.259.213.319.527.142.862v.008c-.18.313-.423.608-.727.88-.004 0-.004.005-.008.005-.251.206-.499.324-.739.35-.03.007-.064.007-.109.007-.105 0-.21-.014-.315-.048l-.007-.01c-.375-.104-.998-.362-2.033-.926a12.094 12.094 0 01-1.711-1.11 8.716 8.716 0 01-.796-.697l-.026-.025-.026-.026a9.319 9.319 0 01-.709-.782 11.642 11.642 0 01-1.13-1.681c-.573-1.021-.836-1.633-.94-1.998l-.012-.008a.988.988 0 01-.049-.31c0-.044 0-.077.008-.106.03-.24.15-.48.356-.727 0-.003.004-.003.004-.007.277-.302.578-.538.896-.715h.008c.338-.174.656-.115.878.14 0 0 .454.534.649.796.184.247.431.638.555.856.221.39.082.792-.135.958l-.439.343c-.221.177-.191.505-.191.505s.649 2.426 3.087 3.034z" fill="#fff"/><defs><linearGradient id="paint0_linear" x1="14.324" y1="28.75" x2="14.324" y2="0" gradientUnits="userSpaceOnUse"><stop offset=".064" stop-color="#12AE42"/><stop offset=".537" stop-color="#73C049"/><stop offset="1" stop-color="#98C74C"/></linearGradient></defs></svg>