<svg width="38" height="38" fill="none" xmlns="http://www.w3.org/2000/svg"><path d="M18.765 37.428c10.336 0 18.714-8.378 18.714-18.714C37.48 8.38 29.101 0 18.765 0 8.43 0 .051 8.379.051 18.714.05 29.05 8.429 37.43 18.765 37.43z" fill="#98C546"/><path d="M18.765 37.428c10.336 0 18.714-8.378 18.714-18.714C37.48 8.38 29.101 0 18.765 0 8.43 0 .051 8.379.051 18.714.05 29.05 8.429 37.43 18.765 37.43z" fill="url(#paint0_linear)"/><path fill-rule="evenodd" clip-rule="evenodd" d="M19.382 29.126h-.005a11.11 11.11 0 01-5.318-1.355L8.16 29.32l1.579-5.767a11.108 11.108 0 01-1.485-5.563c.002-6.136 4.994-11.127 11.128-11.127 2.977.001 5.77 1.16 7.872 3.263a11.06 11.06 0 013.256 7.873c-.003 6.134-4.993 11.125-11.128 11.128zm-5.049-3.37l.338.201a9.235 9.235 0 004.707 1.29h.004c5.098 0 9.247-4.15 9.25-9.25 0-2.471-.96-4.795-2.707-6.543a9.186 9.186 0 00-6.54-2.713c-5.101 0-9.25 4.15-9.252 9.249a9.22 9.22 0 001.414 4.922l.22.35-.935 3.413 3.501-.918zm10.274-5.362c.194.094.325.157.381.25.07.116.07.673-.162 1.323-.232.649-1.343 1.242-1.877 1.322-.479.071-1.085.101-1.751-.11-.404-.129-.922-.3-1.585-.586-2.607-1.126-4.368-3.652-4.701-4.13-.024-.033-.04-.057-.05-.069l-.001-.003c-.148-.196-1.134-1.512-1.134-2.873 0-1.281.63-1.952.92-2.261l.054-.059c.255-.278.556-.348.741-.348.185 0 .371.002.533.01h.062c.162 0 .364-.001.564.477l.307.746c.24.582.503 1.226.55 1.319.07.14.116.301.023.487l-.039.08a1.58 1.58 0 01-.239.384 10.78 10.78 0 00-.142.171 4.66 4.66 0 01-.275.316c-.14.139-.284.29-.122.567.162.279.72 1.19 1.547 1.927a7.18 7.18 0 002.052 1.297c.077.033.139.06.184.083.278.139.44.116.602-.07.163-.185.695-.812.88-1.09.186-.278.372-.232.626-.14.255.094 1.622.766 1.9.905l.152.075z" fill="#FDFDFD"/><defs><linearGradient id="paint0_linear" x1="18.765" y1="37.428" x2="18.765" y2="0" gradientUnits="userSpaceOnUse"><stop offset=".064" stop-color="#12AE42"/><stop offset=".537" stop-color="#73C049"/><stop offset="1" stop-color="#98C74C"/></linearGradient></defs></svg>