<svg width="29" height="29" fill="none" xmlns="http://www.w3.org/2000/svg"><ellipse cx="14.552" cy="14.5" rx="14.448" ry="14.5" fill="#98C546"/><ellipse cx="14.552" cy="14.5" rx="14.448" ry="14.5" fill="url(#paint0_linear)"/><path d="M11.242 17.532l-.287 4.048c.41 0 .588-.177.8-.39l1.925-1.845 3.986 2.93c.731.41 1.246.194 1.444-.675l2.616-12.304.001-.001c.232-1.085-.39-1.509-1.103-1.243l-15.38 5.91c-1.05.409-1.035.996-.18 1.262l3.933 1.227 9.134-5.735c.43-.286.82-.128.499.158l-7.388 6.658z" fill="#fff"/><defs><linearGradient id="paint0_linear" x1="14.552" y1="29" x2="14.552" y2="0" gradientUnits="userSpaceOnUse"><stop offset=".064" stop-color="#12AE42"/><stop offset=".537" stop-color="#73C049"/><stop offset="1" stop-color="#98C74C"/></linearGradient></defs></svg>