<svg width="27" height="27" fill="none" xmlns="http://www.w3.org/2000/svg"><g clip-path="url(#clip0)" fill-rule="evenodd" clip-rule="evenodd" stroke="#fff" stroke-width=".076"><path d="M6.86 4h13.28C21.691 4 23 5.309 23 6.86v13.28c0 1.551-1.309 2.86-2.86 2.86H6.86C5.309 23 4 21.691 4 20.14V6.86C4 5.309 5.309 4 6.86 4zm6.398 2.86c-1.406.145-2.57 1.648-3.15 2.617-.728 1.163-1.31 2.714-1.503 4.314a8.162 8.162 0 00.145 2.666c.388 1.405 1.212 2.665 2.569 3.247.727.34 1.454.485 2.423.485 1.551-.049 2.909-.776 3.781-2.036.824-1.309 1.066-2.957.824-4.75a14.088 14.088 0 00-.63-2.278c-.146-.34-.291-.727-.485-1.018a4.512 4.512 0 00-.533-.92 8.561 8.561 0 00-.582-.825l-.29-.29c-.049-.098-.34-.34-.437-.437-.484-.388-1.26-.872-2.132-.775z" fill="#E90708"/><path d="M13.258 6.86c-1.406.145-2.57 1.648-3.15 2.617-.728 1.163-1.31 2.714-1.503 4.314a8.162 8.162 0 00.145 2.666c.388 1.405 1.212 2.665 2.569 3.247.727.34 1.454.485 2.423.485 1.551-.049 2.909-.776 3.781-2.036.824-1.309 1.066-2.957.824-4.75a14.098 14.098 0 00-.63-2.278c-.145-.34-.29-.727-.485-1.018a4.506 4.506 0 00-.533-.92 8.56 8.56 0 00-.582-.825l-.29-.29c-.049-.097-.34-.34-.437-.437-.484-.388-1.26-.872-2.132-.775z" fill="#FEFEFE"/></g><defs><clipPath id="clip0"><path fill="#fff" transform="translate(4 4)" d="M0 0h19v19H0z"/></clipPath></defs></svg>