<svg width="27" height="27" viewBox="0 0 27 27" fill="none" xmlns="http://www.w3.org/2000/svg">
<g clip-path="url(#clip0)">
<path fill-rule="evenodd" clip-rule="evenodd" d="M6.85969 4H20.1403C21.6913 4 23 5.30867 23 6.85969V20.1403C23 21.6913 21.6913 23 20.1403 23H6.85969C5.30867 23 4 21.6913 4 20.1403V6.85969C4 5.30867 5.30867 4 6.85969 4ZM13.2577 6.85969C11.852 7.0051 10.6888 8.50765 10.1071 9.47704C9.3801 10.6403 8.79847 12.1913 8.60459 13.7908C8.50765 14.7117 8.55612 15.5842 8.75 16.4566C9.13776 17.8622 9.96174 19.1225 11.3189 19.7041C12.0459 20.0434 12.773 20.1888 13.7423 20.1888C15.2934 20.1403 16.6505 19.4133 17.523 18.1531C18.3469 16.8444 18.5893 15.1964 18.3469 13.4031C18.2015 12.6276 17.9592 11.7551 17.7168 11.125C17.5714 10.7857 17.426 10.398 17.2321 10.1071C17.0867 9.76786 16.9413 9.52551 16.699 9.18623C16.5536 8.94388 16.3112 8.60459 16.1173 8.36225L15.8265 8.07143C15.7781 7.97449 15.4872 7.73214 15.3903 7.6352C14.9056 7.24745 14.1301 6.76276 13.2577 6.85969Z" fill="#E90708" stroke="white" stroke-width="0.0762402"/>
<path fill-rule="evenodd" clip-rule="evenodd" d="M13.2577 6.85971C11.8521 7.00512 10.6888 8.50767 10.1072 9.47706C9.38013 10.6403 8.7985 12.1913 8.60462 13.7908C8.50768 14.7118 8.55615 15.5842 8.75003 16.4566C9.13779 17.8623 9.96177 19.1225 11.3189 19.7041C12.0459 20.0434 12.773 20.1888 13.7424 20.1888C15.2934 20.1403 16.6505 19.4133 17.523 18.1531C18.347 16.8444 18.5893 15.1964 18.347 13.4031C18.2016 12.6276 17.9592 11.7551 17.7169 11.125C17.5715 10.7857 17.4261 10.398 17.2322 10.1072C17.0868 9.76787 16.9414 9.52553 16.699 9.18624C16.5536 8.94389 16.3113 8.60461 16.1174 8.36226L15.8266 8.07144C15.7781 7.97451 15.4873 7.73216 15.3903 7.63522C14.9056 7.24746 14.1301 6.76277 13.2577 6.85971Z" fill="#FEFEFE" stroke="white" stroke-width="0.0762402"/>
</g>
<defs>
<clipPath id="clip0">
<rect width="19" height="19" fill="white" transform="translate(4 4)"/>
</clipPath>
</defs>
</svg>
